{"title":"Johnny English (2003) 720p Blu-Ray x264 [Dual-Audio] [English 5.","uid":12132567,"size":962348365,"categoryP":"video","categoryS":"movies","magnet":"?xt=urn:btih:10f3e8541b8a6be40ff279ff6dea69c85512487c&amp;dn=Johnny+English+%282003%29+720p+Blu-Ray+x264+%5BDual-Audio%5D+%5BEnglish+5.&amp;tr=udp%3A%2F%2Ftracker.openbittorrent.com%3A80&amp;tr=udp%3A%2F%2Fopen.demonii.com%3A1337&amp;tr=udp%3A%2F%2Ftracker.coppersurfer.tk%3A6969&amp;tr=udp%3A%2F%2Fexodus.desync.com%3A6969","seeders":11,"leechers":6,"uploader":"praneet_gupta777","files":2,"time":1437078119,"description":"[center]\n[b][size=7]Johnny English (2003) 720p Blu-Ray x264 [Dual-Audio] [English 5.1 + Hindi 2.0] Esubs [PKG][/size][/b]\n\n\n\n\n\n[img]http://extraimago.com/images/2015/07/16/Johnny-English-2008-Wide-Screen-Thai-Front-Cover-13025.jpg[/img]\n\n\n[img]http://extraimago.com/images/2015/07/16/Untitled.png[/img]\n\n\n\n\n[img]http://img9.uploadhouse.com/fileuploads/15981/15981250a2a3770f9f004bcdf00afac92833ebdb.png[/img]\n\n\n[quote]\n\n\nGeneral\nUnique ID                   : 230099874020176509304470521653693116568 (0xAD1B9FAE92A01A87A1C15FD33661F098)\nComplete name               : G:Johnny English (2003) 720p Blu-Ray x264 [Dual-Audio] [English 5.1 + Hindi 2.0] Esubs [PKG]Johnny English (2003) 720p Blu-Ray x264 [Dual-Audio] [English 5.1 + Hindi 2.0] Esubs [PKG].mkv\nFormat                      : Matroska\nFormat version              : Version 4 / Version 2\nFile size                   : 910 MiB\nDuration                    : 1h 27mn\nOverall bit rate            : 1 453 Kbps\nMovie name                  : Johnny English (2003) 720p Blu-Ray x264 [Dual-Audio] [English 5.1 + Hindi 2.0] Esubs [PKG]\nEncoded date                : UTC 2015-07-15 11:30:42\nWriting application         : mkvmerge v7.7.0 ('Six Voices') 64bit built on Feb 28 2015 23:39:33\nDURATION                    : 01:27:09.549000000\nNUMBER_OF_FRAMES            : 1098\nNUMBER_OF_BYTES             : 41397\n\nVideo\nID                          : 1\nFormat                      : AVC\nFormat/Info                 : Advanced Video Codec\nFormat profile              : &lt;a class=&quot;__cf_email__&quot; href=&quot;/cdn-cgi/l/email-protection&quot; data-cfemail=&quot;430b2a242b030f706d72&quot;&gt;[email&amp;#160;protected]&lt;/a&gt;&lt;script data-cfhash='f9e31' type=&quot;text/javascript&quot;&gt;\n/* &lt;![CDATA[ */!function(){try{var t=&quot;currentScript&quot;in document?document.currentScript:function(){for(var t=document.getElementsByTagName(&quot;script&quot;),e=t.length;e--;)if(t[e].getAttribute(&quot;data-cfhash&quot;))return t[e]}();if(t&amp;&amp;t.previousSibling){var e,r,n,i,c=t.previousSibling,a=c.getAttribute(&quot;data-cfemail&quot;);if(a){for(e=&quot;&quot;,r=parseInt(a.substr(0,2),16),n=2;a.length-n;n+=2)i=parseInt(a.substr(n,2),16)^r,e+=String.fromCharCode(i);e=document.createTextNode(e),c.parentNode.replaceChild(e,c)}t.parentNode.removeChild(t);}}catch(u){}}()/* ]]&gt; */&lt;/script&gt;\nFormat settings, CABAC      : Yes\nFormat settings, ReFrames   : 5 frames\nCodec ID                    : V_MPEG4/ISO/AVC\nDuration                    : 1h 27mn\nBit rate                    : 1 007 Kbps\nWidth                       : 1 280 pixels\nHeight                      : 696 pixels\nDisplay aspect ratio        : 1.85:1\nFrame rate mode             : Constant\nFrame rate                  : 23.976 fps\nColor space                 : YUV\nChroma subsampling          : 4:2:0\nBit depth                   : 8 bits\nScan type                   : Progressive\nBits/(Pixel*Frame)          : 0.047\nStream size                 : 611 MiB (67%)\nTitle                       : [PKG]\nWriting library             : x264 core 114 r1924 08d04a4\nEncoding settings           : cabac=1 / ref=5 / deblock=1:-2:-1 / analyse=0x3:0x113 / me=umh / subme=5 / psy=1 / psy_rd=0.00:0.00 / mixed_ref=1 / me_range=16 / chroma_me=1 / trellis=1 / 8x8dct=1 / cqm=0 / deadzone=21,11 / fast_pskip=1 / chroma_qp_offset=0 / threads=3 / sliced_threads=0 / nr=0 / decimate=1 / interlaced=0 / constrained_intra=0 / bframes=16 / b_pyramid=2 / b_adapt=1 / b_bias=0 / direct=3 / weightb=1 / open_gop=0 / weightp=2 / keyint=250 / keyint_min=23 / scenecut=40 / intra_refresh=0 / rc=2pass / mbtree=0 / bitrate=1007 / ratetol=1.0 / qcomp=0.60 / qpmin=10 / qpmax=51 / qpstep=4 / cplxblur=20.0 / qblur=0.5 / ip_ratio=1.40 / pb_ratio=1.30 / aq=2:1.00\nDefault                     : Yes\nForced                      : No\n\nAudio #1\nID                          : 2\nFormat                      : AC-3\nFormat/Info                 : Audio Coding 3\nMode extension              : CM (complete main)\nFormat settings, Endianness : Big\nCodec ID                    : A_AC3\nDuration                    : 1h 27mn\nBit rate mode               : Constant\nBit rate                    : 224 Kbps\nChannel(s)                  : 2 channels\nChannel positions           : Front: L R\nSampling rate               : 48.0 KHz\nBit depth                   : 16 bits\nCompression mode            : Lossy\nStream size                 : 140 MiB (15%)\nTitle                       : [PKG]\nLanguage                    : Hindi\nDefault                     : Yes\nForced                      : No\n\nAudio #2\nID                          : 3\nFormat                      : AC-3\nFormat/Info                 : Audio Coding 3\nMode extension              : CM (complete main)\nFormat settings, Endianness : Big\nCodec ID                    : A_AC3\nDuration                    : 1h 27mn\nBit rate mode               : Constant\nBit rate                    : 224 Kbps\nChannel(s)                  : 6 channels\nChannel positions           : Front: L C R, Side: L R, LFE\nSampling rate               : 48.0 KHz\nBit depth                   : 16 bits\nCompression mode            : Lossy\nStream size                 : 140 MiB (15%)\nTitle                       : [PKG]\nLanguage                    : English\nDefault                     : No\nForced                      : No\n\nText\nID                          : 4\nFormat                      : UTF-8\nCodec ID                    : S_TEXT/UTF8\nCodec ID/Info               : UTF-8 Plain Text\nTitle                       : [PKG]\nLanguage                    : English\nDefault                     : Yes\nForced                      : No\n\nMenu\n00:00:00.000                : en:Chapter 1\n00:03:55.318                : en:Chapter 2\n00:08:12.867                : en:Chapter 3\n00:14:05.094                : en:Chapter 4\n00:17:51.404                : en:Chapter 5\n00:22:31.600                : en:Chapter 6\n00:26:45.729                : en:Chapter 7\n00:33:33.678                : en:Chapter 8\n00:39:12.433                : en:Chapter 9\n00:46:41.674                : en:Chapter 10\n00:49:05.734                : en:Chapter 11\n00:54:09.913                : en:Chapter 12\n00:57:37.746                : en:Chapter 13\n01:02:20.320                : en:Chapter 14\n01:04:59.020                : en:Chapter 15\n01:08:55.298                : en:Chapter 16\n01:13:08.384                : en:Chapter 17\n01:18:03.637                : en:Chapter 18\n01:21:19.708                : en:Chapter 19\n01:22:56.305                : en:Chapter 20\n\n\n[color=navy][size=6][b]SAMPLE WITHIN TORRENT[/b][/size][/color]\n\n\n\n\n\n[img]http://icons.iconarchive.com/icons/tribalmarkings/colorflow/256/screenshots-icon.png[/img]\n\n\n\n[img]http://extraimago.com/images/2015/07/16/vlcsnap-2015-07-16-09h58m57s196.png[/img]\n\n[img]http://extraimago.com/images/2015/07/16/vlcsnap-2015-07-16-10h00m36s138.png[/img]\n\n[img]http://extraimago.com/images/2015/07/16/vlcsnap-2015-07-16-10h03m21s18.png[/img]\n\n[img]http://extraimago.com/images/2015/07/16/vlcsnap-2015-07-16-10h05m43s155.png[/img]\n\n[img]http://extraimago.com/images/2015/07/16/vlcsnap-2015-07-16-10h06m06s128.png[/img]\n\n[img]http://extraimago.com/images/2015/07/16/JohnnyEnglish2003720pBlu-Rayx264Dual-AudioEnglish5.1Hindi2.0EsubsPKG.mkv_thumbs_2015.07.16_09.57.47.jpg[/img]\n\n\n[/center]","torrent":{"xt":"urn:btih:10f3e8541b8a6be40ff279ff6dea69c85512487c","amp;dn":"Johnny+English+%282003%29+720p+Blu-Ray+x264+%5BDual-Audio%5D+%5BEnglish+5.","amp;tr":["udp%3A%2F%2Ftracker.openbittorrent.com%3A80","udp%3A%2F%2Fopen.demonii.com%3A1337","udp%3A%2F%2Ftracker.coppersurfer.tk%3A6969","udp%3A%2F%2Fexodus.desync.com%3A6969"],"infoHash":"10f3e8541b8a6be40ff279ff6dea69c85512487c","infoHashBuffer":{"type":"Buffer","data":[16,243,232,84,27,138,107,228,15,242,121,255,109,234,105,200,85,18,72,124]},"announce":[],"urlList":[]}}